<?xml version="1.0"?>
<svg xmlns="http://www.w3.org/2000/svg" xmlns:xlink="http://www.w3.org/1999/xlink" width="512" height="512" viewBox="0 0 128 128"><defs><linearGradient id="a" x1="104.513" y1="104.513" x2="23.487" y2="23.487" gradientUnits="userSpaceOnUse"><stop offset="0" stop-color="#c7e554"/><stop offset="1" stop-color="#f3d232"/></linearGradient></defs><path d="M103,64a1.75,1.75,0,1,1,1.75,1.75A1.746,1.746,0,0,1,103,64ZM83.5,30.225a1.75,1.75,0,1,0-.641-2.391A1.746,1.746,0,0,0,83.5,30.225Zm-39,0a1.75,1.75,0,1,0-2.391-.641A1.747,1.747,0,0,0,44.5,30.225ZM25,64a1.75,1.75,0,1,0-1.75,1.75A1.746,1.746,0,0,0,25,64ZM44.5,97.775a1.75,1.75,0,1,0,.641,2.391A1.746,1.746,0,0,0,44.5,97.775Zm39,0a1.75,1.75,0,1,0,2.391.641A1.747,1.747,0,0,0,83.5,97.775Zm31.671-6.112a1.75,1.75,0,0,1-1.628,2.818c-2.744-.405-5.884.1-9.208.63a51.179,51.179,0,0,1-8.029.861,15.987,15.987,0,0,1-8.233-2.007,38.278,38.278,0,0,1-5.543-3.943,31.99,31.99,0,0,1-5.254,3.045,37.064,37.064,0,0,1,.644,6.763c0,5.869-3.631,10.334-7.142,14.651-2.125,2.614-4.132,5.082-5.15,7.662a1.751,1.751,0,0,1-3.256,0c-1.018-2.58-3.025-5.048-5.15-7.662-3.511-4.317-7.142-8.782-7.142-14.651a37.064,37.064,0,0,1,.644-6.763,31.939,31.939,0,0,1-5.253-3.045,38.294,38.294,0,0,1-5.545,3.943,16,16,0,0,1-8.232,2.007,51.073,51.073,0,0,1-8.029-.861c-3.325-.532-6.467-1.035-9.208-.63a1.75,1.75,0,0,1-1.628-2.818c1.723-2.172,2.858-5.144,4.059-8.289,1.985-5.2,4.038-10.578,9.117-13.51a39.083,39.083,0,0,1,6.177-2.824c-.094-1-.148-2.014-.148-3.04s.054-2.039.148-3.04a39.111,39.111,0,0,1-6.171-2.821c-5.085-2.935-7.138-8.312-9.123-13.513-1.2-3.145-2.336-6.117-4.059-8.289a1.75,1.75,0,0,1,1.628-2.818c2.744.4,5.884-.1,9.208-.63,5.5-.882,11.182-1.793,16.262,1.146a38.341,38.341,0,0,1,5.544,3.943,31.939,31.939,0,0,1,5.253-3.045,37.064,37.064,0,0,1-.644-6.763c0-5.869,3.631-10.334,7.142-14.651,2.125-2.614,4.132-5.082,5.15-7.662a1.751,1.751,0,0,1,3.256,0c1.018,2.58,3.025,5.048,5.15,7.662,3.278,4.03,6.667,8.2,7.1,13.543a1.75,1.75,0,0,1-3.488.28c-.343-4.26-3.384-8-6.325-11.615A56.011,56.011,0,0,1,64,10.3a55.858,55.858,0,0,1-4.063,5.429c-3.269,4.02-6.357,7.817-6.357,12.443a33.443,33.443,0,0,0,.458,5.462,31.752,31.752,0,0,1,8.212-1.547V19.5a1.75,1.75,0,0,1,3.5,0V32.085a31.765,31.765,0,0,1,16.779,5.893,38.294,38.294,0,0,1,5.545-3.943c5.079-2.938,10.763-2.029,16.261-1.146,3.326.532,6.469,1.037,9.208.63a1.75,1.75,0,0,1,1.628,2.818c-1.723,2.172-2.858,5.144-4.059,8.289-1.985,5.2-4.038,10.578-9.117,13.51a39.083,39.083,0,0,1-6.177,2.824c.094,1,.148,2.014.148,3.04s-.053,2.035-.148,3.034a39.725,39.725,0,0,1,5.141,2.26,1.75,1.75,0,1,1-1.639,3.092,35.857,35.857,0,0,0-4.036-1.818,31.7,31.7,0,0,1-2.778,7.869l10.909,6.3a1.75,1.75,0,0,1-1.75,3.032l-10.913-6.3A32.219,32.219,0,0,1,85.313,87.8a34.423,34.423,0,0,0,4.513,3.138c4,2.314,8.836,1.54,13.955.72a56,56,0,0,1,6.732-.8,56.077,56.077,0,0,1-2.671-6.232c-.4-1.048-.8-2.1-1.233-3.136a1.751,1.751,0,0,1,3.233-1.344c.442,1.066.857,2.152,1.269,3.231C112.313,86.518,113.448,89.49,115.171,91.663Zm-28.252-10.8H41.081a28.431,28.431,0,0,0,45.838,0ZM35.534,64a28.3,28.3,0,0,0,2.4,11.428l22.93-39.717A28.5,28.5,0,0,0,35.534,64Zm31.6-28.289,22.93,39.717a28.445,28.445,0,0,0-22.93-39.717ZM64,37.285,40.864,77.358H87.136ZM85.313,40.2a32.219,32.219,0,0,1,5.439,6.332l10.913-6.3a1.75,1.75,0,1,1,1.75,3.032l-10.909,6.3a31.7,31.7,0,0,1,2.779,7.872,35.175,35.175,0,0,0,4.966-2.334c4-2.307,5.743-6.881,7.592-11.723a55.96,55.96,0,0,1,2.67-6.23,55.773,55.773,0,0,1-6.732-.8c-5.118-.82-9.953-1.595-13.954.72A34.432,34.432,0,0,0,85.313,40.2Zm-52.6,17.233a31.7,31.7,0,0,1,2.779-7.872l-10.909-6.3a1.75,1.75,0,1,1,1.75-3.032l10.913,6.3A32.219,32.219,0,0,1,42.687,40.2a34.423,34.423,0,0,0-4.513-3.138c-4-2.315-8.836-1.54-13.955-.72a56,56,0,0,1-6.732.8,55.96,55.96,0,0,1,2.67,6.23c1.849,4.842,3.6,9.416,7.6,11.726A35.155,35.155,0,0,0,32.715,57.435ZM42.687,87.8a32.219,32.219,0,0,1-5.439-6.332l-10.913,6.3a1.75,1.75,0,0,1-1.75-3.032l10.909-6.3a31.7,31.7,0,0,1-2.779-7.872A35.175,35.175,0,0,0,27.749,72.9c-4,2.307-5.743,6.881-7.592,11.723a55.96,55.96,0,0,1-2.67,6.23,55.773,55.773,0,0,1,6.732.8c5.118.82,9.953,1.595,13.954-.72A34.432,34.432,0,0,0,42.687,87.8Zm31.275,6.57a31.752,31.752,0,0,1-8.212,1.547V108.5a1.75,1.75,0,0,1-3.5,0V95.915a31.752,31.752,0,0,1-8.212-1.547,33.443,33.443,0,0,0-.458,5.462c0,4.626,3.088,8.423,6.357,12.443A55.858,55.858,0,0,1,64,117.7a56.011,56.011,0,0,1,4.062-5.429c3.27-4.02,6.358-7.817,6.358-12.443A33.443,33.443,0,0,0,73.962,94.368Zm29.188-19.01a15.215,15.215,0,0,1,1,1.332,1.75,1.75,0,1,0,2.907-1.949,18.6,18.6,0,0,0-1.236-1.644,1.75,1.75,0,0,0-2.672,2.261ZM61.621,56.623A1.75,1.75,0,1,0,62.7,59.954,4.251,4.251,0,1,1,59.75,64a1.75,1.75,0,0,0-3.5,0,7.746,7.746,0,1,0,5.371-7.377Z" fill="url(#a)"/></svg>
