<?xml version="1.0"?>
<svg xmlns="http://www.w3.org/2000/svg" xmlns:xlink="http://www.w3.org/1999/xlink" width="512" height="512" viewBox="0 0 128 128"><defs><linearGradient id="a" x1="108.193" y1="109.854" x2="19.807" y2="21.467" gradientUnits="userSpaceOnUse"><stop offset="0" stop-color="#c7e554"/><stop offset="1" stop-color="#f3d232"/></linearGradient></defs><path d="M123.161,91.62a1.747,1.747,0,0,0-.908-1.03,64.049,64.049,0,0,0-13.587-4.224,1.75,1.75,0,0,0-.7,3.43A67.586,67.586,0,0,1,119,93.015c-5.4,8.726-15.389,14.269-26.544,14.6a31.5,31.5,0,0,1-15.672-3.476,1.716,1.716,0,0,0-.376-.215,28.635,28.635,0,0,1-9.121-7.887c17.605-.467,30.17-4.742,38.336-13.038,7.563-7.684,11.283-18.906,11.056-33.354a1.752,1.752,0,0,0-1.57-1.713,41.273,41.273,0,0,0-8.253-.043A41.012,41.012,0,0,0,107.7,42a1.75,1.75,0,0,0-1.627-1.865,1.768,1.768,0,0,0-1.865,1.626,37.288,37.288,0,0,1-1.075,6.669,41.071,41.071,0,0,0-15.5,6.651c.032-.534.079-1.065.095-1.6a57.3,57.3,0,0,0-4.071-22.96A46.245,46.245,0,0,1,100.038,19a64.631,64.631,0,0,1,3.01,9.5,1.75,1.75,0,0,0,3.412-.781,69.58,69.58,0,0,0-3.85-11.655,1.75,1.75,0,0,0-2.216-.956A49.321,49.321,0,0,0,82.141,27.029,64.862,64.862,0,0,0,65.127,5.161a1.751,1.751,0,0,0-2.254,0A64.862,64.862,0,0,0,45.859,27.029,49.321,49.321,0,0,0,27.606,15.108a1.75,1.75,0,0,0-2.216.956c-4.909,11.522-6.326,22.209-4.248,31.819a41.267,41.267,0,0,0-8.252.046,1.751,1.751,0,0,0-1.57,1.713,62.264,62.264,0,0,0,1.618,15.846,1.751,1.751,0,0,0,3.4-.841,57.133,57.133,0,0,1-1.525-13.368c9.383-.606,18.131,2.26,26.021,8.5a53.632,53.632,0,0,0,18.09,32.676c-21.007-.931-34.195-7.8-40.211-20.928a1.75,1.75,0,0,0-3.182,1.458,34.307,34.307,0,0,0,9.522,12.44,68.236,68.236,0,0,0-19.3,5.161,1.752,1.752,0,0,0-.795,2.4c5.7,10.793,17.382,17.738,30.488,18.124.372.011.741.016,1.11.016a34.995,34.995,0,0,0,14.715-3.174A29.191,29.191,0,0,0,63,122.937a1.751,1.751,0,0,0,2,0,29.229,29.229,0,0,0,11.732-14.985,34.98,34.98,0,0,0,14.719,3.175q.553,0,1.11-.016c13.106-.386,24.788-7.331,30.488-18.124A1.742,1.742,0,0,0,123.161,91.62Zm-9.973-40.341c-.068,12.708-3.449,22.547-10.058,29.261-7.216,7.331-18.4,11.241-34.056,11.921A53.629,53.629,0,0,0,87.167,59.783C95.058,53.539,103.8,50.674,113.188,51.279ZM24.865,48.428c-2.239-8.785-1.2-18.668,3.1-29.424A46.233,46.233,0,0,1,44.342,30.52a57.3,57.3,0,0,0-4.071,22.96c.016.538.063,1.069.095,1.6A41.052,41.052,0,0,0,24.865,48.428ZM44.221,58.7c0-.022,0-.045-.007-.067a50.8,50.8,0,0,1-.445-5.264A53.865,53.865,0,0,1,47.942,31a1.776,1.776,0,0,0,.136-.322A60.675,60.675,0,0,1,64,8.809,60.675,60.675,0,0,1,79.922,30.681a1.776,1.776,0,0,0,.136.322,53.865,53.865,0,0,1,4.173,22.368,50.8,50.8,0,0,1-.445,5.264c0,.022,0,.045-.007.067A50.361,50.361,0,0,1,65.75,90.711V53.833a1.75,1.75,0,0,0-3.5,0V90.711A50.361,50.361,0,0,1,44.221,58.7Zm-8.678,48.91C24.388,107.284,14.4,101.741,9,93.014a70.424,70.424,0,0,1,20.476-4.491c7.806,4.67,18.183,7.143,31.249,7.5a28.646,28.646,0,0,1-9.193,7.94,1.736,1.736,0,0,0-.269.154A31.387,31.387,0,0,1,35.543,107.612ZM64,119.348a25.538,25.538,0,0,1-9.622-13.054A32.4,32.4,0,0,0,64,97.472a32.392,32.392,0,0,0,9.618,8.82A25.575,25.575,0,0,1,64,119.348Zm43.459-85.909c.1.858.183,1.721.238,2.565a1.749,1.749,0,0,1-1.631,1.862c-.039,0-.078,0-.117,0a1.75,1.75,0,0,1-1.744-1.634q-.078-1.173-.221-2.383a1.75,1.75,0,1,1,3.475-.414ZM100.482,74.5a27.553,27.553,0,0,0,4.7-8.9,1.75,1.75,0,0,1,3.332,1.073,31.089,31.089,0,0,1-5.3,10.023,1.751,1.751,0,0,1-2.727-2.2Z" fill="url(#a)"/></svg>
