<svg id="Layer_1" enable-background="new 0 0 512 512" height="512" viewBox="0 0 512 512" width="512" xmlns="http://www.w3.org/2000/svg"><g><path d="m256 512c-2.734 0-5.469-.747-7.885-2.24-.868-.536-18.842-11.75-36.466-30.807-23.576 10.864-44.474 14.342-45.481 14.505-5.607.909-11.245-1.428-14.566-6.036-.597-.828-12.91-18.065-21.898-42.413-25.928 1.016-46.579-3.767-47.573-4.002-5.527-1.307-9.843-5.623-11.147-11.151-.234-.993-5.013-21.632-3.998-47.563-24.35-8.989-41.586-21.296-42.414-21.893-4.609-3.322-6.947-8.963-6.037-14.572.164-1.008 3.648-21.908 14.505-45.477-19.056-17.625-30.266-35.602-30.802-36.47-2.983-4.831-2.983-10.933 0-15.764.536-.868 11.746-18.844 30.802-36.47-10.856-23.567-14.341-44.46-14.505-45.468-.91-5.608 1.426-11.249 6.034-14.571.828-.597 18.066-12.912 42.416-21.904-1.015-25.931 3.764-46.57 3.998-47.563 1.305-5.528 5.62-9.844 11.147-11.151.993-.235 21.649-5.02 47.573-4.002 8.988-24.348 21.302-41.585 21.898-42.413 3.321-4.606 8.958-6.946 14.566-6.036 1.008.164 21.905 3.642 45.481 14.505 17.624-19.057 35.598-30.271 36.466-30.807 4.832-2.986 10.938-2.986 15.77 0 .868.537 18.841 11.75 36.46 30.806 23.574-10.862 44.472-14.341 45.479-14.504 5.609-.908 11.245 1.428 14.566 6.035.597.828 12.91 18.065 21.898 42.413 25.933-1.016 46.58 3.767 47.573 4.002 5.527 1.307 9.843 5.623 11.147 11.151.234.994 5.013 21.633 3.998 47.563 24.35 8.993 41.588 21.307 42.416 21.904 4.608 3.322 6.944 8.963 6.034 14.571-.164 1.007-3.648 21.9-14.505 45.467 19.057 17.625 30.271 35.599 30.808 36.467 2.985 4.833 2.985 10.937 0 15.77-.537.869-11.751 18.843-30.808 36.467 10.856 23.568 14.341 44.468 14.505 45.476.91 5.609-1.428 11.25-6.037 14.572-.828.596-18.064 12.904-42.413 21.895 1.015 25.93-3.764 46.569-3.998 47.563-1.305 5.528-5.62 9.844-11.147 11.151-.994.235-21.642 5.021-47.573 4.002-8.988 24.348-21.302 41.586-21.898 42.414-3.321 4.607-8.959 6.942-14.566 6.035-1.008-.164-21.905-3.643-45.479-14.504-17.619 19.056-35.592 30.269-36.46 30.806-2.415 1.494-5.149 2.241-7.884 2.241z" fill="#00c6dc"/><path d="m263.885 509.76c.868-.537 18.841-11.75 36.46-30.806 23.574 10.862 44.472 14.341 45.479 14.504 5.607.907 11.245-1.428 14.566-6.035.597-.828 12.91-18.065 21.898-42.414 25.932 1.02 46.579-3.767 47.573-4.002 5.527-1.307 9.843-5.623 11.147-11.151.234-.993 5.013-21.632 3.998-47.563 24.349-8.991 41.585-21.298 42.413-21.895 4.609-3.322 6.947-8.963 6.037-14.572-.164-1.008-3.648-21.908-14.505-45.476 19.057-17.625 30.271-35.599 30.808-36.467 2.985-4.833 2.985-10.937 0-15.77-.537-.869-11.751-18.843-30.808-36.467 10.856-23.567 14.341-44.46 14.505-45.467.91-5.608-1.426-11.249-6.034-14.571-.828-.597-18.066-12.912-42.416-21.904 1.015-25.931-3.764-46.57-3.998-47.563-1.305-5.528-5.62-9.844-11.147-11.151-.993-.235-21.641-5.018-47.573-4.002-8.988-24.348-21.302-41.585-21.898-42.413-3.321-4.607-8.957-6.943-14.566-6.035-1.008.164-21.905 3.643-45.479 14.504-17.619-19.054-35.592-30.268-36.46-30.804-2.417-1.494-5.153-2.24-7.889-2.24v512h.004c2.735 0 5.469-.747 7.885-2.24z" fill="#00a8be"/><path d="m256 430.534c-94.338 0-171.088-76.746-171.088-171.08 0-94.338 76.75-171.087 171.088-171.087 94.334 0 171.08 76.75 171.08 171.087 0 94.334-76.746 171.08-171.08 171.08z" fill="#00d9f0"/><path d="m427.08 259.454c0-94.338-76.746-171.087-171.08-171.087-.001 0-.003 0-.004 0v342.167h.004c94.334 0 171.08-76.746 171.08-171.08z" fill="#00c6dc"/><path d="m404.159 173.911c-2.68-4.641-7.631-7.5-12.99-7.5h-270.346c-5.359 0-10.311 2.859-12.99 7.5s-2.68 10.359 0 15l67.584 117.062 67.593 117.062c2.68 4.641 7.632 7.5 12.99 7.5 5.359 0 10.311-2.859 12.99-7.5l135.169-234.123c2.68-4.642 2.68-10.36 0-15.001zm-229.521 70.708-27.834-48.208h55.727c-14.289 12.137-24.404 29.027-27.893 48.208zm81.361 140.916-27.828-48.197c8.702 3.118 18.068 4.829 27.829 4.829 9.76 0 19.124-1.711 27.825-4.829zm.001-73.368c-29.07 0-52.721-23.647-52.721-52.713 0-29.07 23.65-52.721 52.721-52.721 29.066 0 52.713 23.65 52.713 52.721 0 29.066-23.646 52.713-52.713 52.713zm81.355-67.546c-3.489-19.182-13.602-36.072-27.89-48.21h55.724z" fill="#00a8be"/><path d="m268.99 423.034 135.169-234.123c2.68-4.641 2.68-10.359 0-15s-7.631-7.5-12.99-7.5h-135.173v40.323h.004c29.066 0 52.713 23.65 52.713 52.721 0 29.066-23.646 52.713-52.713 52.713-.001 0-.003 0-.004 0v30h.004c9.76 0 19.124-1.711 27.825-4.829l-27.826 48.196-.003-.005v45.004h.004c5.36 0 10.311-2.86 12.99-7.5zm96.199-226.623-27.834 48.21c-3.489-19.182-13.602-36.072-27.89-48.21z" fill="#00889d"/></g></svg>